<?xml version="1.0" encoding="utf-8"?>
<!-- Generator: Adobe Illustrator 17.1.0, SVG Export Plug-In . SVG Version: 6.00 Build 0)  -->
<!DOCTYPE svg PUBLIC "-//W3C//DTD SVG 1.1//EN" "http://www.w3.org/Graphics/SVG/1.1/DTD/svg11.dtd">
<svg version="1.1" id="Layer_1" xmlns="http://www.w3.org/2000/svg" xmlns:xlink="http://www.w3.org/1999/xlink" x="0px" y="0px"
	 width="441.928px" height="130.358px" viewBox="3.527 2.378 441.928 140.358"
	 enable-background="new 3.527 27.378 441.928 139.358" xml:space="preserve">
<g display="none">
	<path display="inline" fill="#002A36" d="M13.7,98.1c-0.7,0-1.3,0.2-1.8,0.5c-0.5,0.3-0.9,0.7-1.2,1.3s-0.5,1.2-0.6,1.9
		c-0.1,0.7-0.2,1.6-0.2,2.4c-2.5,0-4.4-0.3-5.7-0.9s-1.9-1.5-1.9-2.9c0-1,0.3-1.9,0.9-2.6C3.9,97,4.7,96.4,5.8,96
		c1.1-0.5,2.3-0.8,3.7-1c1.4-0.2,2.9-0.3,4.5-0.3c2,0,3.7,0.2,5.2,0.5c1.5,0.3,2.7,0.9,3.7,1.6c1,0.8,1.7,1.7,2.2,3
		c0.5,1.2,0.7,2.7,0.7,4.5v14.3c0,0.8,0.1,1.4,0.2,1.9c0.1,0.5,0.3,0.9,0.6,1.2c0.3,0.3,0.6,0.5,1,0.6c0.4,0.1,1,0.2,1.6,0.2h0.2v3
		H18.9l-1.2-3.9h-0.5c-0.6,0.8-1.2,1.4-1.8,2c-0.5,0.6-1.1,1-1.8,1.4c-0.6,0.4-1.3,0.6-2.1,0.8c-0.8,0.2-1.7,0.3-2.8,0.3
		c-1.2,0-2.4-0.2-3.5-0.6s-2-0.9-2.8-1.7c-0.8-0.8-1.4-1.7-1.9-2.9c-0.5-1.1-0.7-2.5-0.7-4.1c0-3.1,1-5.3,3.1-6.8
		c2.1-1.5,5.3-2.3,9.5-2.4l4.6-0.2v-3.1c0-0.9,0-1.8-0.1-2.6c-0.1-0.8-0.2-1.5-0.5-2c-0.2-0.6-0.6-1-1.1-1.3
		C15.1,98.2,14.5,98.1,13.7,98.1z M8.7,117.1c0,1.6,0.3,2.8,0.8,3.6s1.3,1.2,2.4,1.2c0.8,0,1.5-0.2,2.2-0.5c0.6-0.3,1.2-0.8,1.7-1.4
		c0.5-0.6,0.8-1.4,1.1-2.3c0.2-0.9,0.4-1.9,0.4-3v-4.2l-2.5,0.2c-1.1,0.1-2.1,0.2-2.8,0.5c-0.8,0.3-1.4,0.7-1.8,1.2
		c-0.5,0.5-0.8,1.2-1,1.9C8.8,115.2,8.7,116.1,8.7,117.1z"/>
</g>
<g display="none">
	<path display="inline" fill="#002A36" d="M42.2,126.1c-2.1,0-4-0.3-5.7-0.8c-1.7-0.5-3.2-1.4-4.4-2.6c-1.2-1.2-2.2-2.8-2.9-4.8
		c-0.7-2-1-4.4-1-7.3c0-3,0.4-5.6,1.1-7.6c0.7-2,1.7-3.7,2.9-4.9c1.2-1.2,2.7-2.1,4.4-2.6c1.7-0.5,3.5-0.8,5.4-0.8
		c1.8,0,3.4,0.2,4.8,0.5c1.4,0.3,2.6,0.7,3.5,1.2s1.6,1.2,2.1,1.9s0.7,1.5,0.7,2.3c0,0.6-0.1,1.2-0.3,1.8s-0.6,1.1-1.1,1.5
		c-0.5,0.4-1.3,0.8-2.2,1.1c-0.9,0.3-2.1,0.4-3.6,0.4c0-1-0.1-1.9-0.2-2.8s-0.3-1.6-0.6-2.3s-0.6-1.2-1.1-1.6s-1.1-0.6-1.8-0.6
		c-0.8,0-1.6,0.2-2.2,0.6c-0.7,0.4-1.2,1.1-1.7,2s-0.8,2.2-1.1,3.8c-0.2,1.6-0.4,3.6-0.4,6c0,3.8,0.5,6.7,1.6,8.5
		c1,1.9,2.7,2.8,5.1,2.8c1,0,1.9-0.1,2.7-0.3s1.6-0.6,2.3-1s1.3-0.9,1.8-1.5s0.9-1.2,1.3-1.8c0.5,0.3,0.8,0.6,1,1.1
		c0.2,0.5,0.3,1,0.3,1.5c0,0.7-0.2,1.4-0.6,2.2c-0.4,0.7-1.1,1.4-2,2c-0.9,0.6-2,1.1-3.4,1.5C45.7,125.9,44.1,126.1,42.2,126.1z"/>
</g>
<g display="none">
	<path display="inline" fill="#002A36" d="M68.1,98.1c-0.7,0-1.3,0.2-1.8,0.5c-0.5,0.3-0.9,0.7-1.2,1.3s-0.5,1.2-0.6,1.9
		c-0.1,0.7-0.2,1.6-0.2,2.4c-2.5,0-4.4-0.3-5.7-0.9s-1.9-1.5-1.9-2.9c0-1,0.3-1.9,0.9-2.6c0.6-0.7,1.4-1.3,2.5-1.8
		c1.1-0.5,2.3-0.8,3.7-1c1.4-0.2,2.9-0.3,4.5-0.3c2,0,3.7,0.2,5.2,0.5c1.5,0.3,2.7,0.9,3.7,1.6c1,0.8,1.7,1.7,2.2,3
		c0.5,1.2,0.7,2.7,0.7,4.5v14.3c0,0.8,0.1,1.4,0.2,1.9c0.1,0.5,0.3,0.9,0.6,1.2c0.3,0.3,0.6,0.5,1,0.6c0.4,0.1,1,0.2,1.6,0.2h0.2v3
		H73.3l-1.2-3.9h-0.5c-0.6,0.8-1.2,1.4-1.8,2c-0.5,0.6-1.1,1-1.8,1.4c-0.6,0.4-1.3,0.6-2.1,0.8c-0.8,0.2-1.7,0.3-2.8,0.3
		c-1.2,0-2.4-0.2-3.5-0.6c-1.1-0.4-2-0.9-2.8-1.7c-0.8-0.8-1.4-1.7-1.9-2.9c-0.5-1.1-0.7-2.5-0.7-4.1c0-3.1,1-5.3,3.1-6.8
		c2.1-1.5,5.3-2.3,9.5-2.4l4.6-0.2v-3.1c0-0.9,0-1.8-0.1-2.6c-0.1-0.8-0.2-1.5-0.5-2c-0.2-0.6-0.6-1-1.1-1.3
		C69.5,98.2,68.9,98.1,68.1,98.1z M63.1,117.1c0,1.6,0.3,2.8,0.8,3.6c0.5,0.8,1.3,1.2,2.4,1.2c0.8,0,1.5-0.2,2.2-0.5
		c0.7-0.3,1.2-0.8,1.7-1.4c0.5-0.6,0.8-1.4,1.1-2.3c0.2-0.9,0.4-1.9,0.4-3v-4.2l-2.5,0.2c-1.1,0.1-2.1,0.2-2.8,0.5
		c-0.8,0.3-1.4,0.7-1.8,1.2c-0.5,0.5-0.8,1.2-1,1.9C63.2,115.2,63.1,116.1,63.1,117.1z"/>
	<path display="inline" fill="#002A36" d="M111,118.6c0,0.9,0.1,1.5,0.4,2.1c0.3,0.5,0.6,0.9,1,1.2c0.4,0.3,0.9,0.5,1.5,0.6
		s1.1,0.1,1.8,0.1h0.2v3H105l-1.6-4.4h-0.5c-0.4,0.8-0.9,1.5-1.4,2.1c-0.5,0.6-1.2,1.1-1.9,1.6c-0.7,0.4-1.5,0.8-2.4,1
		c-0.9,0.2-1.9,0.3-3,0.3c-1.8,0-3.5-0.3-4.9-0.9s-2.6-1.6-3.6-2.8c-1-1.3-1.7-2.9-2.2-4.8s-0.8-4.3-0.8-7c0-2.7,0.3-5.1,0.8-7
		s1.2-3.6,2.2-4.9c1-1.3,2.2-2.3,3.6-2.9c1.4-0.6,3-0.9,4.8-0.9c1.1,0,2,0.1,2.9,0.3c0.9,0.2,1.6,0.5,2.3,0.9
		c0.7,0.4,1.3,0.9,1.8,1.4s1,1.2,1.4,1.8h0.4c-0.1-1-0.1-2-0.2-2.9c0-0.4,0-0.8-0.1-1.2c0-0.4-0.1-0.8-0.1-1.1c0-0.4,0-0.7-0.1-0.9
		c0-0.3,0-0.5,0-0.7v-3.1c0-0.8-0.1-1.4-0.4-1.9c-0.2-0.5-0.6-0.8-1-1.1c-0.4-0.2-0.9-0.4-1.4-0.5c-0.6-0.1-1.1-0.1-1.8-0.1h-0.4v-3
		H111L111,118.6L111,118.6z M96.6,121.9c1.1,0,2-0.2,2.8-0.7c0.7-0.5,1.3-1.2,1.8-2.1c0.4-1,0.8-2.1,0.9-3.6
		c0.2-1.4,0.3-3.1,0.3-5.1c0-1.9-0.1-3.5-0.3-4.9c-0.2-1.4-0.5-2.6-0.9-3.6c-0.4-1-1-1.7-1.8-2.2c-0.7-0.5-1.7-0.8-2.8-0.8
		c-0.9,0-1.7,0.3-2.4,0.8s-1.2,1.2-1.6,2.2s-0.7,2.2-0.9,3.6c-0.2,1.4-0.3,3.1-0.3,5c0,3.8,0.4,6.7,1.2,8.6
		C93.4,120.9,94.7,121.9,96.6,121.9z"/>
</g>
<g display="none">
	<path display="inline" fill="#002A36" d="M128,126.1c-2.4,0-4.5-0.3-6.3-1c-1.8-0.7-3.3-1.7-4.6-3c-1.2-1.3-2.2-2.9-2.8-4.9
		c-0.6-1.9-0.9-4.1-0.9-6.6c0-2.6,0.3-5,0.9-6.9c0.6-2,1.5-3.7,2.7-5c1.2-1.3,2.7-2.3,4.4-3c1.7-0.7,3.7-1,5.9-1
		c2,0,3.9,0.3,5.5,0.9c1.6,0.6,3,1.4,4.1,2.6c1.1,1.1,2,2.5,2.6,4.2c0.6,1.7,0.9,3.6,0.9,5.9v2.9h-18.4c0.1,1.9,0.3,3.5,0.6,4.9
		c0.4,1.4,0.9,2.5,1.5,3.4c0.6,0.9,1.4,1.5,2.3,1.9c0.9,0.4,1.9,0.6,3.1,0.6c1,0,1.9-0.1,2.7-0.3c0.8-0.2,1.6-0.6,2.2-1
		s1.3-0.9,1.8-1.5c0.5-0.6,0.9-1.2,1.2-1.8c1,0.6,1.5,1.5,1.5,2.7c0,0.8-0.2,1.6-0.7,2.3s-1.1,1.4-2,1.9s-2.1,1-3.4,1.3
		C131.6,125.9,129.9,126.1,128,126.1z M127.5,98.3c-1.6,0-2.8,0.8-3.8,2.3c-0.9,1.6-1.4,3.8-1.5,6.8h9.7c0-1.4-0.1-2.7-0.2-3.8
		c-0.2-1.1-0.4-2.1-0.8-2.9c-0.4-0.8-0.8-1.4-1.4-1.8C129,98.5,128.3,98.3,127.5,98.3z"/>
</g>
<g display="none">
	<path display="inline" fill="#002A36" d="M162,125.5V107c0-1.2-0.1-2.3-0.2-3.2c-0.2-0.9-0.4-1.7-0.8-2.4c-0.4-0.6-0.8-1.1-1.4-1.5
		c-0.6-0.3-1.3-0.5-2.1-0.5c-0.9,0-1.7,0.2-2.3,0.7c-0.6,0.5-1.1,1.1-1.5,1.9s-0.6,1.7-0.8,2.8c-0.2,1.1-0.2,2.2-0.2,3.3v10.7
		c0,0.8,0.1,1.4,0.3,1.9s0.5,0.8,0.8,1.1c0.3,0.3,0.8,0.4,1.3,0.5c0.5,0.1,1.1,0.1,1.7,0.1h0.2v3h-17.3v-3h0.1c0.6,0,1.2,0,1.8-0.1
		c0.5-0.1,1-0.3,1.4-0.5c0.4-0.3,0.7-0.7,0.9-1.2c0.2-0.5,0.3-1.2,0.3-2v-16.8c0-0.8-0.1-1.4-0.3-1.9c-0.2-0.5-0.5-0.8-0.8-1.1
		s-0.8-0.4-1.3-0.5c-0.5-0.1-1.1-0.1-1.7-0.1h-0.2v-2.8h11.8l0.7,4h0.3c0.6-1.1,1.2-1.9,1.8-2.5c0.6-0.6,1.3-1.1,2-1.4
		c0.7-0.3,1.5-0.5,2.3-0.6c0.8-0.1,1.6-0.1,2.5-0.1c2.1,0,3.8,0.4,5.3,1.1c1.5,0.7,2.5,1.9,3.2,3.6h0.5c0.6-1.1,1.2-1.9,1.9-2.5
		c0.7-0.6,1.4-1.1,2.1-1.4c0.8-0.3,1.6-0.5,2.4-0.6c0.8-0.1,1.7-0.1,2.6-0.1c1.4,0,2.7,0.2,3.9,0.6s2.1,1.1,2.9,1.9
		c0.8,0.9,1.4,2,1.8,3.4s0.6,3,0.6,4.9v13.1c0,0.9,0.1,1.6,0.2,2.1s0.4,0.9,0.7,1.2c0.3,0.3,0.7,0.5,1.2,0.6c0.5,0.1,1,0.1,1.6,0.1
		h0.2v3h-12.5V107c0-2.4-0.3-4.3-1-5.6c-0.7-1.3-1.8-2-3.5-2c-0.9,0-1.6,0.2-2.3,0.6c-0.6,0.4-1.1,1-1.5,1.7s-0.7,1.6-0.9,2.6
		c-0.2,1-0.3,2-0.3,3.1v11.1c0,0.9,0.1,1.6,0.2,2.1s0.4,0.9,0.7,1.2c0.3,0.3,0.7,0.5,1.2,0.6c0.5,0.1,1,0.1,1.7,0.1h0.2v3L162,125.5
		L162,125.5L162,125.5z"/>
</g>
<g display="none">
	<path display="inline" fill="#002A36" d="M220.8,95.4v3c-0.6,0-1.1,0.1-1.5,0.2c-0.4,0.1-0.8,0.4-1.2,0.7c-0.3,0.3-0.7,0.7-1,1.3
		s-0.6,1.2-0.9,2c-0.7,1.9-1.3,3.8-2.1,5.7c-0.7,1.9-1.4,3.9-2.2,5.8c-0.7,1.9-1.4,3.9-2.2,5.8c-0.7,1.9-1.4,3.8-2.1,5.7
		c-0.7,1.8-1.3,3.4-1.9,4.8c-0.6,1.4-1.2,2.6-1.9,3.6c-0.6,1-1.4,1.8-2.2,2.5s-1.7,1.2-2.7,1.6c-1,0.4-2.3,0.7-3.6,0.8
		c-1.4,0.2-3,0.2-4.8,0.2h-1v-3.3c2,0,3.6-0.2,5-0.7c1.4-0.5,2.5-1.2,3.5-2c1-0.9,1.7-1.9,2.3-3.2c0.6-1.2,1.1-2.6,1.6-4.1
		L192.1,101c-0.2-0.5-0.5-1-0.7-1.3s-0.6-0.6-0.9-0.7s-0.6-0.3-1-0.3c-0.4,0-0.8-0.1-1.2-0.1v-3.3h16v3c-1.1,0-2,0.1-2.6,0.4
		s-0.9,0.8-0.9,1.7c0,0.3,0.1,0.7,0.2,1.1c0.1,0.4,0.2,0.8,0.4,1.1c0.3,0.8,0.7,1.6,1,2.6c0.4,0.9,0.7,1.9,1,2.8
		c0.3,0.9,0.7,1.8,1,2.7c0.3,0.9,0.6,1.6,0.8,2.3c0.3,0.7,0.5,1.4,0.7,1.9s0.3,1.1,0.5,1.6c0.1,0.5,0.2,0.9,0.3,1.3
		c0.1,0.4,0.1,0.8,0.2,1.2c0-0.4,0.1-0.8,0.2-1.3s0.2-0.9,0.4-1.3c0.1-0.4,0.3-0.8,0.4-1.2c0.1-0.3,0.2-0.6,0.3-0.7l3.7-11
		c0.1-0.2,0.1-0.4,0.2-0.6s0.1-0.5,0.2-0.8c0.1-0.3,0.1-0.5,0.1-0.7c0-0.2,0-0.4,0-0.6c0-0.9-0.4-1.5-1.1-1.8s-1.7-0.5-3-0.5v-3
		L220.8,95.4L220.8,95.4z"/>
</g>
<g display="none">
	<path display="inline" fill="#93A1A1" d="M246,125.8v-18.5c0-1.2-0.1-2.3-0.2-3.2c-0.2-0.9-0.4-1.7-0.8-2.4
		c-0.4-0.6-0.8-1.1-1.4-1.5c-0.6-0.3-1.3-0.5-2.1-0.5c-0.9,0-1.7,0.2-2.3,0.7c-0.6,0.5-1.1,1.1-1.5,1.9s-0.6,1.7-0.8,2.8
		c-0.2,1.1-0.2,2.2-0.2,3.3v10.7c0,0.8,0.1,1.4,0.3,1.9s0.5,0.8,0.8,1.1c0.3,0.3,0.8,0.4,1.3,0.5c0.5,0.1,1.1,0.1,1.7,0.1h0.2v3
		h-17.3v-3h0.1c0.6,0,1.2,0,1.8-0.1c0.5-0.1,1-0.3,1.4-0.5c0.4-0.3,0.7-0.7,0.9-1.2c0.2-0.5,0.3-1.2,0.3-2v-16.8
		c0-0.8-0.1-1.4-0.3-1.9c-0.2-0.5-0.5-0.8-0.8-1.1s-0.8-0.4-1.3-0.5c-0.5-0.1-1.1-0.1-1.7-0.1h-0.2v-2.8h11.8l0.7,4h0.3
		c0.6-1.1,1.2-1.9,1.8-2.5c0.6-0.6,1.3-1.1,2-1.4c0.7-0.3,1.5-0.5,2.3-0.6c0.8-0.1,1.6-0.1,2.5-0.1c2.1,0,3.8,0.4,5.3,1.1
		c1.5,0.7,2.5,1.9,3.2,3.6h0.5c0.6-1.1,1.2-1.9,1.9-2.5c0.7-0.6,1.4-1.1,2.1-1.4c0.8-0.3,1.6-0.5,2.4-0.6c0.8-0.1,1.7-0.1,2.6-0.1
		c1.4,0,2.7,0.2,3.9,0.6c1.2,0.4,2.1,1.1,2.9,1.9c0.8,0.9,1.4,2,1.8,3.4c0.4,1.4,0.6,3,0.6,4.9v13.1c0,0.9,0.1,1.6,0.2,2.1
		c0.2,0.5,0.4,0.9,0.7,1.2s0.7,0.5,1.2,0.6s1,0.1,1.6,0.1h0.2v3H264v-18.5c0-2.4-0.3-4.3-1-5.6c-0.7-1.3-1.8-2-3.5-2
		c-0.9,0-1.6,0.2-2.3,0.6c-0.6,0.4-1.1,1-1.5,1.7c-0.4,0.7-0.7,1.6-0.9,2.6c-0.2,1-0.3,2-0.3,3.1v11.1c0,0.9,0.1,1.6,0.2,2.1
		c0.2,0.5,0.4,0.9,0.7,1.2s0.7,0.5,1.2,0.6c0.5,0.1,1,0.1,1.7,0.1h0.2v3L246,125.8L246,125.8L246,125.8z"/>
</g>
<g display="none">
	<path display="inline" fill="#93A1A1" d="M289.5,126.4c-2.4,0-4.5-0.3-6.3-1c-1.8-0.7-3.3-1.7-4.6-3c-1.2-1.3-2.2-2.9-2.8-4.9
		c-0.6-1.9-0.9-4.1-0.9-6.6c0-2.6,0.3-5,0.9-6.9c0.6-2,1.5-3.7,2.7-5c1.2-1.3,2.7-2.3,4.4-3c1.7-0.7,3.7-1,5.9-1
		c2,0,3.9,0.3,5.5,0.9c1.6,0.6,3,1.4,4.1,2.6c1.1,1.1,2,2.5,2.6,4.2c0.6,1.7,0.9,3.6,0.9,5.9v2.9h-18.4c0.1,1.9,0.3,3.5,0.6,4.9
		c0.4,1.4,0.9,2.5,1.5,3.4c0.6,0.9,1.4,1.5,2.3,1.9c0.9,0.4,1.9,0.6,3.1,0.6c1,0,1.9-0.1,2.7-0.3c0.8-0.2,1.6-0.6,2.2-1
		c0.7-0.4,1.3-0.9,1.8-1.5s0.9-1.2,1.2-1.8c1,0.6,1.5,1.5,1.5,2.7c0,0.8-0.2,1.6-0.7,2.3c-0.4,0.7-1.1,1.4-2,1.9
		c-0.9,0.6-2.1,1-3.4,1.3C293.1,126.2,291.4,126.4,289.5,126.4z M289,98.6c-1.6,0-2.8,0.8-3.8,2.3c-0.9,1.6-1.4,3.8-1.5,6.8h9.7
		c0-1.4-0.1-2.7-0.2-3.8c-0.2-1.1-0.4-2.1-0.8-2.9c-0.4-0.8-0.8-1.4-1.4-1.8C290.5,98.8,289.8,98.6,289,98.6z"/>
</g>
<g display="none">
	<path display="inline" fill="#93A1A1" d="M318.3,126.4c-2.4,0-4.5-0.3-6.3-1c-1.8-0.7-3.3-1.7-4.6-3c-1.2-1.3-2.2-2.9-2.8-4.9
		c-0.6-1.9-0.9-4.1-0.9-6.6c0-2.6,0.3-5,0.9-6.9c0.6-2,1.5-3.7,2.7-5c1.2-1.3,2.7-2.3,4.4-3c1.7-0.7,3.7-1,5.9-1
		c2,0,3.9,0.3,5.5,0.9c1.6,0.6,3,1.4,4.1,2.6c1.1,1.1,2,2.5,2.6,4.2c0.6,1.7,0.9,3.6,0.9,5.9v2.9h-18.4c0.1,1.9,0.3,3.5,0.6,4.9
		c0.4,1.4,0.9,2.5,1.5,3.4c0.6,0.9,1.4,1.5,2.3,1.9c0.9,0.4,1.9,0.6,3.1,0.6c1,0,1.9-0.1,2.7-0.3c0.8-0.2,1.6-0.6,2.2-1
		c0.7-0.4,1.3-0.9,1.8-1.5s0.9-1.2,1.2-1.8c1,0.6,1.5,1.5,1.5,2.7c0,0.8-0.2,1.6-0.7,2.3c-0.4,0.7-1.1,1.4-2,1.9
		c-0.9,0.6-2.1,1-3.4,1.3C321.8,126.2,320.2,126.4,318.3,126.4z M317.7,98.6c-1.6,0-2.8,0.8-3.8,2.3c-0.9,1.6-1.4,3.8-1.5,6.8h9.7
		c0-1.4-0.1-2.7-0.2-3.8c-0.2-1.1-0.4-2.1-0.8-2.9c-0.4-0.8-0.8-1.4-1.4-1.8C319.2,98.8,318.6,98.6,317.7,98.6z"/>
</g>
<g display="none">
	<path display="inline" fill="#93A1A1" d="M346.3,121.9c0.7,0,1.4-0.1,2.1-0.2s1.3-0.2,1.9-0.4v3.7c-0.3,0.1-0.7,0.3-1.2,0.5
		c-0.5,0.2-1.1,0.3-1.8,0.5c-0.7,0.1-1.4,0.3-2.3,0.3c-0.8,0.1-1.8,0.1-2.7,0.1c-1.3,0-2.4-0.2-3.4-0.5c-1-0.3-1.9-0.8-2.6-1.5
		s-1.3-1.6-1.6-2.7c-0.4-1.1-0.6-2.5-0.6-4.2v-18h-4.2v-2.9c1.2,0,2.3-0.2,3.2-0.7c1-0.5,1.7-1,2.3-1.6c1.2-1.2,2-3.1,2.6-5.6h4.7v7
		h7.2v3.8h-7.2v17.4c0,1.7,0.3,2.9,0.9,3.7C344.1,121.5,345,121.9,346.3,121.9z"/>
</g>
<g display="none">
	<path display="inline" fill="#93A1A1" d="M375.2,125.8l-1.2-4h-0.3c-0.6,1-1.2,1.8-1.8,2.3c-0.7,0.6-1.4,1.1-2.1,1.4
		c-0.8,0.3-1.5,0.5-2.4,0.6c-0.8,0.1-1.7,0.2-2.6,0.2c-2.9,0-5.2-0.9-6.7-2.7c-1.6-1.8-2.4-4.6-2.4-8.4v-12.6c0-0.8-0.1-1.5-0.2-2
		c-0.1-0.5-0.4-0.9-0.7-1.2c-0.3-0.3-0.7-0.5-1.2-0.6c-0.5-0.1-1.1-0.2-1.7-0.2h-0.1v-3h12.5v18c0,1.2,0.1,2.3,0.2,3.3
		s0.4,1.8,0.7,2.5c0.3,0.7,0.8,1.2,1.3,1.6c0.5,0.4,1.2,0.6,2.1,0.6c0.9,0,1.7-0.2,2.3-0.6c0.6-0.4,1.2-1,1.6-1.7
		c0.4-0.7,0.7-1.6,0.9-2.7c0.2-1.1,0.3-2.2,0.3-3.6v-10.8c0-0.8-0.1-1.5-0.3-1.9s-0.5-0.8-0.9-1.1c-0.4-0.2-0.8-0.4-1.3-0.5
		c-0.5-0.1-1-0.1-1.6-0.1h-0.2v-3h12.8v23.6c0,0.8,0.1,1.5,0.3,1.9c0.2,0.5,0.5,0.8,0.8,1.1c0.3,0.2,0.7,0.4,1.2,0.5s1,0.1,1.5,0.1
		h0.5v3L375.2,125.8L375.2,125.8z"/>
</g>
<g display="none">
	<path display="inline" fill="#93A1A1" d="M384.7,136.4c0.4,0,0.9,0,1.3-0.1c0.5-0.1,0.9-0.3,1.3-0.5c0.4-0.3,0.7-0.6,1-1.1
		c0.3-0.5,0.4-1.1,0.4-1.9v-30.1c0-0.9-0.1-1.5-0.3-2.1s-0.5-0.9-0.8-1.2s-0.7-0.5-1.2-0.6c-0.5-0.1-1-0.1-1.5-0.1h-0.4v-3h11l1,4.4
		h0.2c0.4-0.7,0.9-1.4,1.4-2c0.5-0.6,1.2-1.1,1.9-1.6s1.5-0.8,2.4-1c0.9-0.2,1.9-0.4,2.9-0.4c1.9,0,3.5,0.3,5,0.9
		c1.4,0.6,2.6,1.6,3.6,2.9s1.7,2.9,2.2,4.9c0.5,2,0.8,4.3,0.8,7.1c0,2.7-0.2,5.1-0.7,7c-0.5,2-1.2,3.6-2.2,4.9
		c-1,1.3-2.1,2.2-3.5,2.8c-1.4,0.6-3,0.9-4.8,0.9c-2.1,0-3.9-0.4-5.2-1.2c-1.3-0.8-2.4-1.9-3.2-3.3h-0.4c0.1,0.9,0.1,1.7,0.2,2.5
		c0.1,0.7,0.1,1.4,0.2,2.2c0,0.8,0.1,1.5,0.1,2.1v3.9c0,0.8,0.1,1.4,0.4,1.9c0.3,0.5,0.6,0.8,1,1.1s0.8,0.4,1.3,0.5
		c0.5,0.1,0.9,0.1,1.3,0.1h1.2v3h-18.4v-3H384.7L384.7,136.4z M403,122.4c1.9,0,3.2-0.9,4.1-2.8c0.8-1.9,1.2-4.8,1.2-8.6
		c0-3.7-0.4-6.6-1.2-8.6c-0.8-2-2.1-3-4-3c-1.1,0-2.1,0.3-2.8,0.8c-0.8,0.5-1.3,1.2-1.8,2.2c-0.4,1-0.8,2.2-0.9,3.6
		c-0.2,1.4-0.3,3.1-0.3,4.9c0,1.9,0.1,3.6,0.3,5.1c0.2,1.4,0.5,2.6,0.9,3.6c0.4,1,1,1.7,1.8,2.1C401,122.1,401.9,122.4,403,122.4z"
		/>
	<path display="inline" fill="#93A1A1" d="M429.7,126.4c-2,0-3.8-0.2-5.2-0.5c-1.4-0.3-2.6-0.8-3.5-1.4s-1.6-1.3-2-2.1
		c-0.4-0.8-0.6-1.7-0.6-2.6c0-0.9,0.2-1.7,0.5-2.2s0.8-1,1.3-1.3s1.1-0.5,1.7-0.6s1.2-0.2,1.6-0.2c0,1.2,0.1,2.2,0.4,3.2
		c0.3,0.9,0.7,1.7,1.2,2.4s1.2,1.1,1.9,1.5c0.7,0.3,1.6,0.5,2.5,0.5c1,0,1.8-0.1,2.5-0.3c0.7-0.2,1.3-0.5,1.7-0.8
		c0.4-0.4,0.8-0.8,1-1.2s0.3-1,0.3-1.5c0-0.6-0.1-1.2-0.3-1.7c-0.2-0.5-0.6-0.9-1.1-1.4c-0.5-0.4-1.2-0.9-2.1-1.3
		c-0.9-0.4-2-0.8-3.3-1.3c-1.5-0.5-2.9-1.1-4-1.7s-2.1-1.3-2.9-2c-0.8-0.8-1.4-1.6-1.8-2.6s-0.6-2.1-0.6-3.4c0-1.5,0.3-2.8,0.9-3.9
		c0.6-1.1,1.4-2,2.5-2.8c1.1-0.7,2.3-1.3,3.8-1.7s3.1-0.6,4.9-0.6c1.8,0,3.3,0.2,4.5,0.5c1.2,0.3,2.3,0.7,3,1.2
		c0.8,0.5,1.4,1.1,1.7,1.7c0.4,0.6,0.5,1.3,0.5,1.9c0,1.3-0.4,2.2-1.3,2.9c-0.9,0.7-2.4,1-4.4,1c0-1.9-0.4-3.3-1.2-4.4
		c-0.8-1-2.1-1.6-3.7-1.6c-0.6,0-1.2,0.1-1.7,0.2s-1,0.4-1.5,0.7s-0.7,0.7-1,1.1c-0.2,0.4-0.4,0.9-0.4,1.5c0,0.6,0.1,1.1,0.3,1.6
		c0.2,0.5,0.6,0.9,1.2,1.4s1.4,0.9,2.4,1.3c1,0.4,2.3,0.9,3.8,1.5c1.2,0.4,2.4,0.9,3.4,1.5s2,1.2,2.7,1.9s1.4,1.5,1.8,2.5
		s0.6,2,0.6,3.2c0,1.6-0.3,2.9-0.8,4.2c-0.5,1.2-1.3,2.3-2.4,3.1s-2.3,1.5-3.8,1.9C433.4,126.2,431.6,126.4,429.7,126.4z"/>
</g>
<g display="none">
	<path display="inline" fill="#D9BC2B" d="M132,91.8h-16.3v-2.6h0.1c0.6,0,1.1,0,1.5-0.1c0.5-0.1,0.9-0.2,1.2-0.5
		c0.3-0.2,0.6-0.6,0.8-1.1c0.2-0.5,0.3-1.1,0.3-1.8V71.5c0-0.7-0.1-1.3-0.2-1.7c-0.2-0.4-0.4-0.8-0.7-1c-0.3-0.2-0.7-0.4-1.1-0.5
		c-0.4-0.1-0.9-0.1-1.5-0.1h-0.1v-2.6h9.9l1,3.8h0.2c0.3-0.7,0.7-1.4,1-1.9s0.8-1,1.4-1.4c0.5-0.4,1.2-0.6,1.9-0.8
		c0.7-0.2,1.6-0.3,2.6-0.3c1.9,0,3.3,0.3,4.2,1c0.9,0.7,1.4,1.7,1.4,2.9c0,1.5-0.5,2.7-1.6,3.5c-1.1,0.8-2.6,1.2-4.6,1.2
		c0-0.7,0-1.3-0.1-1.8c-0.1-0.5-0.2-0.9-0.4-1.3c-0.2-0.3-0.4-0.6-0.7-0.8c-0.3-0.2-0.7-0.3-1.2-0.3c-0.6,0-1.1,0.1-1.5,0.4
		c-0.4,0.3-0.8,0.7-1,1.1c-0.3,0.5-0.5,1-0.7,1.5c-0.2,0.6-0.3,1.1-0.4,1.7c-0.1,0.6-0.2,1.1-0.2,1.7c0,0.5,0,1,0,1.4v8.4
		c0,0.7,0.1,1.3,0.3,1.7c0.2,0.4,0.4,0.8,0.7,1s0.7,0.4,1.1,0.4c0.4,0.1,0.9,0.1,1.3,0.1h1.6L132,91.8C132,91.8,132,91.8,132,91.8z"
		/>
</g>
<g display="none">
	<path display="inline" fill="#D9BC2B" d="M163.9,78.6c0,4.6-1.1,8-3.2,10.3c-2.2,2.3-5.3,3.4-9.5,3.4c-2,0-3.7-0.3-5.3-0.8
		s-2.9-1.4-4-2.5c-1.1-1.1-1.9-2.5-2.5-4.3c-0.6-1.7-0.9-3.7-0.9-6c0-4.6,1.1-8,3.2-10.2c2.2-2.2,5.3-3.4,9.5-3.4
		c2,0,3.7,0.3,5.3,0.8c1.5,0.6,2.9,1.4,4,2.5c1.1,1.1,1.9,2.5,2.5,4.3C163.6,74.3,163.9,76.3,163.9,78.6z M146.2,78.6
		c0,1.7,0.1,3.3,0.3,4.6c0.2,1.3,0.5,2.4,0.9,3.3s0.9,1.6,1.6,2c0.7,0.5,1.4,0.7,2.4,0.7c0.9,0,1.7-0.2,2.4-0.7
		c0.6-0.5,1.2-1.1,1.6-2s0.7-2,0.9-3.3c0.2-1.3,0.3-2.8,0.3-4.6c0-1.7-0.1-3.3-0.3-4.6c-0.2-1.3-0.5-2.4-0.9-3.3
		c-0.4-0.9-0.9-1.5-1.6-2c-0.7-0.4-1.4-0.7-2.4-0.7c-0.9,0-1.7,0.2-2.4,0.7c-0.7,0.4-1.2,1.1-1.6,2c-0.4,0.9-0.7,2-0.9,3.3
		C146.3,75.3,146.2,76.8,146.2,78.6z"/>
</g>
<g display="none">
	<path display="inline" fill="#D9BC2B" d="M182.9,91.8l-1.1-3.5h-0.2c-0.5,0.8-1,1.5-1.6,2s-1.2,0.9-1.8,1.2
		c-0.7,0.3-1.3,0.5-2.1,0.6c-0.7,0.1-1.5,0.1-2.2,0.1c-2.5,0-4.5-0.8-5.8-2.4c-1.4-1.6-2-4-2-7.3V71.7c0-0.7-0.1-1.3-0.2-1.7
		c-0.1-0.4-0.3-0.8-0.6-1c-0.3-0.3-0.6-0.4-1-0.5c-0.4-0.1-0.9-0.1-1.5-0.1h-0.1v-2.6h10.8v15.6c0,1,0.1,2,0.2,2.8
		c0.1,0.8,0.3,1.6,0.6,2.2c0.3,0.6,0.7,1.1,1.1,1.4c0.5,0.3,1.1,0.5,1.8,0.5c0.8,0,1.4-0.2,2-0.5c0.6-0.3,1-0.8,1.4-1.5
		c0.4-0.6,0.6-1.4,0.8-2.3c0.2-0.9,0.2-1.9,0.2-3.1v-9.4c0-0.7-0.1-1.3-0.3-1.7c-0.2-0.4-0.4-0.7-0.8-0.9c-0.3-0.2-0.7-0.3-1.1-0.4
		c-0.4-0.1-0.9-0.1-1.4-0.1h-0.1v-2.6H189v20.5c0,0.7,0.1,1.3,0.2,1.7c0.2,0.4,0.4,0.7,0.7,0.9c0.3,0.2,0.6,0.3,1,0.4
		s0.8,0.1,1.3,0.1h0.4v2.6L182.9,91.8L182.9,91.8L182.9,91.8z"/>
	<path display="inline" fill="#D9BC2B" d="M214.1,69.7c0-0.6-0.2-1-0.7-1.2c-0.5-0.2-1.1-0.3-1.8-0.3h-0.1v-2.6h11.3v2.6h-0.4
		c-0.5,0-0.9,0-1.3,0.1s-0.7,0.2-1.1,0.5s-0.8,0.5-1.2,1s-0.9,0.9-1.4,1.6l-5,6.1l7.2,9.1c0.7,0.9,1.4,1.6,2.1,2
		c0.6,0.4,1.2,0.6,1.8,0.6h0.6v2.6h-15.5v-2.6h0.3c2,0,2.9-0.5,2.9-1.6c0-0.2,0-0.4-0.1-0.6c0-0.2-0.1-0.4-0.3-0.7
		c-0.1-0.3-0.3-0.6-0.6-0.9c-0.2-0.3-0.6-0.8-1-1.2l-2.8-3.4l-3.4,4.2c-0.3,0.4-0.5,0.8-0.7,1.2c-0.2,0.4-0.3,0.8-0.3,1.2
		c0,0.5,0.2,0.9,0.7,1.2s1.2,0.4,2.3,0.4h0.1v2.6h-12.4v-2.6h0.4c0.6,0,1.1-0.1,1.5-0.2c0.4-0.1,0.9-0.3,1.2-0.5
		c0.4-0.2,0.8-0.6,1.2-1c0.4-0.4,0.8-0.9,1.3-1.5l6.1-7.4l-6.1-7.9c-0.7-0.9-1.4-1.5-2-1.9c-0.7-0.4-1.4-0.6-2.1-0.6h-0.6v-2.6h15.3
		v2.6h-0.2c-0.6,0-1,0-1.4,0.1c-0.4,0.1-0.6,0.2-0.8,0.3s-0.3,0.3-0.4,0.5c-0.1,0.2-0.1,0.4-0.1,0.5c0,0.3,0.1,0.7,0.3,1
		c0.2,0.3,0.5,0.7,0.9,1.2l2.7,3.3l2.3-2.8c0.4-0.5,0.7-1,0.9-1.4C214,70.5,214.1,70.1,214.1,69.7z"/>
</g>
<circle display="none" fill="#DC322E" cx="251" cy="13.7" r="13.7"/>
<circle display="none" fill="#D9BC2B" cx="282.3" cy="13.7" r="13.7"/>
<circle display="none" fill="#6C71C4" cx="313.6" cy="13.7" r="13.7"/>
<circle display="none" fill="#D33682" cx="251" cy="43.7" r="13.7"/>
<circle display="none" fill="#B58900" cx="282.3" cy="43.7" r="13.7"/>
<circle display="none" fill="#475B62" cx="313.6" cy="43.7" r="13.7"/>
<circle display="none" fill="#063642" cx="251" cy="73.7" r="13.7"/>
<circle display="none" fill="#B39664" cx="282.3" cy="73.7" r="13.7"/>
<circle display="none" fill="#859900" cx="313.6" cy="73.7" r="13.7"/>
<g>
	<linearGradient id="SVGID_1_" gradientUnits="userSpaceOnUse" x1="3.0617" y1="68.4062" x2="435.7779" y2="68.4062">
		<stop  offset="0" style="stop-color:#0027BF"/>
		<stop  offset="0.4477" style="stop-color:#FFFFFF"/>
	</linearGradient>
	<path fill="url(#SVGID_1_)" d="M354,133.7c-24.5-0.1-53.2-0.1-83.9-0.2c-30.7,0-63.4-0.1-96.1-0.1c-32.7,0-65.5,0.1-96.1,0.1
		c-27.8,0.1-37.4-3.7-48.8-13.7l2.6-22.3l21.9-5.8c0,0,15.6,11.6,20.8,14.5c0,0-17.8-12.3-19.5-16.3l4.5-22.5l24.7-11.1l18.3,9.5
		l0.2,24.3l0.9-24.1l19.5-16.7L112.6,29l-20.5,2.6L72.1,17.4l3.3-12c3.1-0.1,6.1-0.1,8.8,0.1c4.1,0.3,7.6,0.9,10.5,1.6
		c0.7,0.2,1.4,0.3,2,0.5c0.6,0.2,1.2,0.3,1.8,0.5c1.1,0.3,2.1,0.6,2.8,0.8c1.5,0.5,2.3,0.7,2.3,0.7s-0.8-0.4-2.2-1.1
		c-0.7-0.4-1.6-0.8-2.7-1.2c-0.5-0.2-1.1-0.5-1.7-0.7c-0.6-0.2-1.3-0.5-2-0.7c-0.7-0.3-1.5-0.5-2.2-0.8c-0.8-0.2-1.6-0.5-2.5-0.8
		c-0.9-0.2-1.8-0.4-2.8-0.7c-1-0.2-2-0.4-3-0.6c-4.2-0.7-8.9-1.2-14.2-1c-5.2,0.1-10.9,1-16.7,2.6c-2.9,0.8-5.9,1.8-8.8,3.1
		c-2.9,1.2-5.8,2.8-8.6,4.5c-5.7,3.4-11,7.8-15.6,13c-2.3,2.6-4.4,5.4-6.4,8.3c-0.9,1.5-1.9,3-2.7,4.6c-0.4,0.8-0.9,1.6-1.2,2.3
		l-1.1,2.3c-1.4,3.2-2.6,6.5-3.6,9.9c-0.9,3.4-1.6,6.8-2,10.2C2.7,69.8,3,76.6,4.2,83c0.6,3.2,1.3,6.3,2.4,9.3c1,3,2.2,5.8,3.5,8.5
		c2.6,5.4,5.8,10.1,9.2,14c3.4,4,6.9,7.1,10.3,9.7c0.8,0.6,1.6,1.2,2.5,1.8c0.8,0.5,1.6,1.1,2.4,1.6c0.2,0.1,0.7,0.3,1.3,0.6
		c10.6,5.9,19.6,6,19.6,6c3.2,0.1,6.4,0.5,22.5,0.2c30.7,0,63.4,0.1,96.1,0.1c32.7,0,65.5-0.1,96.1-0.1c30.7-0.1,59.3-0.2,83.9-0.2
		c49.1-0.2,81.8-0.4,81.8-0.4S403.1,133.9,354,133.7z M111.3,32.4l7.5,16.5l-9.5-12.3l-9.5-2.4L111.3,32.4z M51.8,89.1l0.4-19.3
		L40,58.2L56.2,68L51.8,89.1z M71.5,6.2l-2.3,9.5l-0.3-9C69.6,6.1,71.5,6.2,71.5,6.2z M72.2,18.1l18,15.3L83.8,54L59.1,66.3L39.6,55
		l11-30.1L72.2,18.1z M10,63.7c0.4-3.1,1.1-6.2,2-9.3c0.9-3.1,2-6,3.3-9l1.1-2.2c0.4-0.8,0.7-1.5,1.1-2.1c0.7-1.4,1.6-2.7,2.4-4.1
		c1.8-2.7,3.6-5.3,5.7-7.6c0.5-0.6,1.1-1.2,1.6-1.8c0.5-0.6,1.1-1.2,1.6-1.7c0.6-0.6,1.1-1.1,1.7-1.7c0.6-0.5,1.2-1,1.7-1.6
		c2-1.7,4-3.3,6.1-4.8l10.5,6.9l-9.8,30.1L19.6,68.7L9.4,69.5C9.5,67.6,9.7,65.6,10,63.7z M18.2,106.1c-0.6-1.2-1.3-2.3-1.9-3.5
		c-0.6-1.2-1.2-2.5-1.7-3.7c-1.1-2.6-2-5.2-2.8-8.1c-0.4-1.4-0.7-2.8-1.1-4.3c-0.2-0.7-0.3-1.5-0.4-2.2c-0.1-0.7-0.3-1.5-0.4-2.2
		c-0.6-4-0.8-8.2-0.6-12.4h9.8L30,96.1l-1.1,23.5c-1.1-1-2.3-2-3.4-3.1c-1-1.2-2.1-2.6-3.1-3.9c-0.7-1-1.4-2-2.1-3.1
		C19.5,108.3,18.8,107.3,18.2,106.1z"/>
</g>
<text transform="matrix(1.0165 0 0 1 89.8486 126.7058)" fill="#FFFFFF" font-family="'Nexa-XBold'" font-size="31.8135">TDC CCE SOCCER TV</text>
</svg>
